<svg xmlns="http://www.w3.org/2000/svg" id="logo" data-name="logo" viewBox="557.47 493.92 805.06 92.16"><defs><style>.cls-1{fill:#1f35ac;}</style></defs><path class="cls-1" d="M649.54,494.17H635.11a3.34,3.34,0,0,0-2.69,1.37l-24.51,33.69a3.32,3.32,0,0,1-5.37,0L578,495.54a3.31,3.31,0,0,0-2.68-1.37H560.79a3.32,3.32,0,0,0-3.32,3.32V581a3.32,3.32,0,0,0,3.32,3.32h10.35a3.31,3.31,0,0,0,3.32-3.32v-52a3.33,3.33,0,0,1,6-2l21.7,29.69a3.32,3.32,0,0,0,5.34,0l22.38-29.83a3.32,3.32,0,0,1,6,2V581a3.31,3.31,0,0,0,3.32,3.32h10.35a3.32,3.32,0,0,0,3.32-3.32V497.49A3.32,3.32,0,0,0,649.54,494.17Z"></path><path class="cls-1" d="M895.28,494H834.47a3.33,3.33,0,0,0-3.33,3.33v83.46a3.32,3.32,0,0,0,3.33,3.32h60.81a3.32,3.32,0,0,0,3.32-3.32V570.74a3.32,3.32,0,0,0-3.32-3.32H851.33A3.32,3.32,0,0,1,848,564.1V550.4a3.32,3.32,0,0,1,3.32-3.32h42.14a3.33,3.33,0,0,0,3.33-3.32v-9.19a3.32,3.32,0,0,0-3.33-3.32H851.33a3.32,3.32,0,0,1-3.32-3.32V513.84a3.32,3.32,0,0,1,3.32-3.32h43.95a3.32,3.32,0,0,0,3.32-3.32v-9.83A3.33,3.33,0,0,0,895.28,494Z"></path><path class="cls-1" d="M1007,494H944.4a3.32,3.32,0,0,0-3.32,3.33v9.32A3.32,3.32,0,0,0,944.4,510h34.78a3.32,3.32,0,0,1,2.71,5.24l-41.36,58.26a3.3,3.3,0,0,0-.61,1.92v5.4a3.32,3.32,0,0,0,3.32,3.32H1007a3.32,3.32,0,0,0,3.32-3.32v-9.45a3.32,3.32,0,0,0-3.32-3.32H970a3.32,3.32,0,0,1-2.71-5.24l42.41-59.93a3.3,3.3,0,0,0,.61-1.92v-3.6A3.33,3.33,0,0,0,1007,494Z"></path><path class="cls-1" d="M1115.91,494H1053.3a3.33,3.33,0,0,0-3.32,3.33v9.32a3.32,3.32,0,0,0,3.32,3.32h34.79a3.32,3.32,0,0,1,2.71,5.24l-41.36,58.26a3.31,3.31,0,0,0-.62,1.92v5.4a3.32,3.32,0,0,0,3.32,3.32h63.77a3.32,3.32,0,0,0,3.33-3.32v-9.45a3.33,3.33,0,0,0-3.33-3.32h-37a3.32,3.32,0,0,1-2.71-5.24l42.41-59.93a3.37,3.37,0,0,0,.61-1.92v-3.6A3.33,3.33,0,0,0,1115.91,494Z"></path><path class="cls-1" d="M1223.94,495.57l-20.11,31.24a3.32,3.32,0,0,1-5.62,0L1179,495.62a3.34,3.34,0,0,0-2.83-1.58h-18.36v.78l34.08,51.3a3.3,3.3,0,0,1,.55,1.83v32.88a3.32,3.32,0,0,0,3.32,3.32h10.35a3.31,3.31,0,0,0,3.32-3.32V548a3.32,3.32,0,0,1,.59-1.88l35.33-51.28V494h-18.66A3.32,3.32,0,0,0,1223.94,495.57Z"></path><polygon class="cls-1" points="1345.54 493.92 1345.54 549.91 1301.38 494.05 1287.61 494.05 1287.61 584.15 1304.6 584.15 1304.6 523.39 1351.97 584.28 1351.97 584.15 1362.53 584.15 1362.53 493.92 1345.54 493.92"></polygon><path class="cls-1" d="M712.33,522.55l-2.26,2.24a1,1,0,0,0-.26.68v3.64h5v-3.64a1,1,0,0,0-.26-.68Z"></path><path class="cls-1" d="M712.33,536.69l-2.26,2.24a1,1,0,0,0-.26.68v3.64h5v-3.64a1,1,0,0,0-.26-.68Z"></path><path class="cls-1" d="M730.29,548.89l-3.21,3.21a1.34,1.34,0,0,0-.39,1v30.46a43.44,43.44,0,0,0,7.2,1.86V553.06a1.35,1.35,0,0,0-.4-1Z"></path><path class="cls-1" d="M741.66,546.84l-3.2,3.21a1.35,1.35,0,0,0-.4,1v5.18h7.22V551a1.35,1.35,0,0,0-.4-1Z"></path><path class="cls-1" d="M738.06,585.91c1.41.12,2.82.17,4.27.17,1,0,2,0,2.95-.08V560h-7.22Z"></path><path class="cls-1" d="M753.05,548.89l-3.2,3.21a1.35,1.35,0,0,0-.4,1V585.6a42.41,42.41,0,0,0,7.2-1.62V553.06a1.3,1.3,0,0,0-.39-1Z"></path><path class="cls-1" d="M771,522.55l-2.24,2.24a1,1,0,0,0-.28.68v3.64h5.06v-3.64a1,1,0,0,0-.27-.68Z"></path><path class="cls-1" d="M771,536.69l-2.24,2.24a1,1,0,0,0-.28.68v3.64h5.06v-3.64a1,1,0,0,0-.27-.68Z"></path><path class="cls-1" d="M778,494.17H705.61a3.32,3.32,0,0,0-3.32,3.32v48.3c0,9,2,16.45,5.5,22.39V518.74a12.28,12.28,0,0,1,9.08,0v59.6a36.54,36.54,0,0,0,5.93,3.56l0-15.73V550.72s-.77-2.1,3.3-4.07a36.75,36.75,0,0,1,5.59-2h0a45.15,45.15,0,0,1,19.9,0h0a35.84,35.84,0,0,1,5.57,2c4.07,2,3.31,4.07,3.31,4.07v15.45l0,16.33a33.57,33.57,0,0,0,5.9-3.36v-60.4a12.33,12.33,0,0,1,9.1,0v50.53c3.7-6.16,5.76-14,5.76-23.48v-48.3A3.32,3.32,0,0,0,778,494.17Zm-65.67,20.52a14.55,14.55,0,0,0-6.74,1.6c.22-1.85,1.38-2.77,3.41-3.9a11.73,11.73,0,0,0,3.33-2.63,11.73,11.73,0,0,0,3.33,2.63c2,1.13,3.19,2.05,3.41,3.9A14.49,14.49,0,0,0,712.33,514.69Zm29.33,24.91a45.16,45.16,0,0,0-21.22,5.07c.71-5.87,4.37-8.76,10.74-12.33a37.23,37.23,0,0,0,10.48-8.26,37.58,37.58,0,0,0,10.49,8.26c6.39,3.57,10,6.46,10.75,12.33A45.18,45.18,0,0,0,741.66,539.6ZM771,514.69a14.49,14.49,0,0,0-6.74,1.6c.22-1.85,1.38-2.77,3.41-3.9a11.73,11.73,0,0,0,3.33-2.63,11.89,11.89,0,0,0,3.34,2.63c2,1.13,3.17,2.05,3.4,3.9A14.55,14.55,0,0,0,771,514.69Z"></path></svg>